<svg width="600" height="500"><g class="container-group4" transform="translate(40,100)"><g class="x axis" transform="translate(0,350)"><g class="tick" transform="translate(60.5,0)" style="opacity: 1;"><line y2="0" x2="0"></line><text dy=".71em" y="3" x="0" style="text-anchor: middle;">N/A</text></g><g class="tick" transform="translate(165.5,0)" style="opacity: 1;"><line y2="0" x2="0"></line><text dy=".71em" y="3" x="0" style="text-anchor: middle;">2016-03-03</text></g><g class="tick" transform="translate(270.5,0)" style="opacity: 1;"><line y2="0" x2="0"></line><text dy=".71em" y="3" x="0" style="text-anchor: middle;">2016-03-17</text></g><g class="tick" transform="translate(375.5,0)" style="opacity: 1;"><line y2="0" x2="0"></line><text dy=".71em" y="3" x="0" style="text-anchor: middle;">2016-03-31</text></g><g class="tick" transform="translate(480.5,0)" style="opacity: 1;"><line y2="0" x2="0"></line><text dy=".71em" y="3" x="0" style="text-anchor: middle;">2016-04-14</text></g><path class="domain" d="M0,0V0H540V0"></path></g><g class="axis" transform="translate(100,350)"><text class="label" x="0" y="40" style="fill: black; text-anchor: end; font-size: 20px; font-weight: 400;">Nago</text></g><g class="y axis" style="opacity: 1;"><g class="tick" transform="translate(0,350)" style="opacity: 1;"><line x2="-6" y2="0"></line><text dy=".32em" x="-9" y="0" style="text-anchor: end;">0</text></g><g class="tick" transform="translate(0,300)" style="opacity: 1;"><line x2="-6" y2="0"></line><text dy=".32em" x="-9" y="0" style="text-anchor: end;">10</text></g><g class="tick" transform="translate(0,250)" style="opacity: 1;"><line x2="-6" y2="0"></line><text dy=".32em" x="-9" y="0" style="text-anchor: end;">20</text></g><g class="tick" transform="translate(0,200)" style="opacity: 1;"><line x2="-6" y2="0"></line><text dy=".32em" x="-9" y="0" style="text-anchor: end;">30</text></g><g class="tick" transform="translate(0,150)" style="opacity: 1;"><line x2="-6" y2="0"></line><text dy=".32em" x="-9" y="0" style="text-anchor: end;">40</text></g><g class="tick" transform="translate(0,100)" style="opacity: 1;"><line x2="-6" y2="0"></line><text dy=".32em" x="-9" y="0" style="text-anchor: end;">50</text></g><g class="tick" transform="translate(0,50.000000000000014)" style="opacity: 1;"><line x2="-6" y2="0"></line><text dy=".32em" x="-9" y="0" style="text-anchor: end;">60</text></g><g class="tick" transform="translate(0,0)" style="opacity: 1;"><line x2="-6" y2="0"></line><text dy=".32em" x="-9" y="0" style="text-anchor: end;">70</text></g><path class="domain" d="M-6,0H0V350H-6"></path><text transform="rotate(-90)" y="6" dy=".71em" style="text-anchor: end; font-weight: bold;">Number specimens and species</text></g><g class="grid"><g class="tick" transform="translate(0,350)" style="opacity: 1;"><line x2="540" y2="0"></line><text dy=".32em" x="-3" y="0" style="text-anchor: end;"></text></g><g class="tick" transform="translate(0,300)" style="opacity: 1;"><line x2="540" y2="0"></line><text dy=".32em" x="-3" y="0" style="text-anchor: end;"></text></g><g class="tick" transform="translate(0,250)" style="opacity: 1;"><line x2="540" y2="0"></line><text dy=".32em" x="-3" y="0" style="text-anchor: end;"></text></g><g class="tick" transform="translate(0,200)" style="opacity: 1;"><line x2="540" y2="0"></line><text dy=".32em" x="-3" y="0" style="text-anchor: end;"></text></g><g class="tick" transform="translate(0,150)" style="opacity: 1;"><line x2="540" y2="0"></line><text dy=".32em" x="-3" y="0" style="text-anchor: end;"></text></g><g class="tick" transform="translate(0,100)" style="opacity: 1;"><line x2="540" y2="0"></line><text dy=".32em" x="-3" y="0" style="text-anchor: end;"></text></g><g class="tick" transform="translate(0,50.000000000000014)" style="opacity: 1;"><line x2="540" y2="0"></line><text dy=".32em" x="-3" y="0" style="text-anchor: end;"></text></g><g class="tick" transform="translate(0,0)" style="opacity: 1;"><line x2="540" y2="0"></line><text dy=".32em" x="-3" y="0" style="text-anchor: end;"></text></g><path class="domain" d="M0,0H0V350H0"></path></g><g class="slice" transform="translate(13,0)"><rect width="31" x="1" y="350" height="0" style="fill: rgb(202, 0, 32);"></rect><rect width="31" x="32" y="350" height="0" style="fill: rgb(244, 165, 130);"></rect><rect width="31" x="63" y="350" height="0" style="fill: rgb(146, 197, 222);"></rect><circle class="dot" r="5" cx="16.5" cy="350" fill="black" style="opacity: 0;"></circle><circle class="dot" r="5" cx="47.5" cy="350" fill="black" style="opacity: 0;"></circle><circle class="dot" r="5" cx="78.5" cy="350" fill="black" style="opacity: 0;"></circle></g><g class="slice" transform="translate(118,0)"><rect width="31" x="1" y="340" height="10" style="fill: rgb(202, 0, 32);"></rect><rect width="31" x="32" y="320" height="30" style="fill: rgb(244, 165, 130);"></rect><rect width="31" x="63" y="325" height="25" style="fill: rgb(146, 197, 222);"></rect><circle class="dot" r="5" cx="16.5" cy="340" fill="black" style="opacity: 1;"></circle><circle class="dot" r="5" cx="47.5" cy="325" fill="black" style="opacity: 1;"></circle><circle class="dot" r="5" cx="78.5" cy="340" fill="black" style="opacity: 1;"></circle></g><g class="slice" transform="translate(223,0)"><rect width="31" x="1" y="325" height="25" style="fill: rgb(202, 0, 32);"></rect><rect width="31" x="32" y="335" height="15" style="fill: rgb(244, 165, 130);"></rect><rect width="31" x="63" y="315" height="35" style="fill: rgb(146, 197, 222);"></rect><circle class="dot" r="5" cx="16.5" cy="330" fill="black" style="opacity: 1;"></circle><circle class="dot" r="5" cx="47.5" cy="335" fill="black" style="opacity: 1;"></circle><circle class="dot" r="5" cx="78.5" cy="330" fill="black" style="opacity: 1;"></circle></g><g class="slice" transform="translate(328,0)"><rect width="31" x="1" y="330" height="20" style="fill: rgb(202, 0, 32);"></rect><rect width="31" x="32" y="315" height="35" style="fill: rgb(244, 165, 130);"></rect><rect width="31" x="63" y="340" height="10" style="fill: rgb(146, 197, 222);"></rect><circle class="dot" r="5" cx="16.5" cy="330" fill="black" style="opacity: 1;"></circle><circle class="dot" r="5" cx="47.5" cy="330" fill="black" style="opacity: 1;"></circle><circle class="dot" r="5" cx="78.5" cy="340" fill="black" style="opacity: 1;"></circle></g><g class="slice" transform="translate(433,0)"><rect width="31" x="1" y="295" height="55" style="fill: rgb(202, 0, 32);"></rect><rect width="31" x="32" y="295" height="55" style="fill: rgb(244, 165, 130);"></rect><rect width="31" x="63" y="325" height="25" style="fill: rgb(146, 197, 222);"></rect><circle class="dot" r="5" cx="16.5" cy="305" fill="black" style="opacity: 1;"></circle><circle class="dot" r="5" cx="47.5" cy="320" fill="black" style="opacity: 1;"></circle><circle class="dot" r="5" cx="78.5" cy="335" fill="black" style="opacity: 1;"></circle></g></g><g class="legend" transform="translate(0,0)" style="opacity: 1;"><rect x="120" y="100" width="18" height="18" style="fill: rgb(146, 197, 222);"></rect><text x="112" y="109" dy=".35em" style="text-anchor: end;">S0070</text></g><g class="legend" transform="translate(0,20)" style="opacity: 1;"><rect x="120" y="100" width="18" height="18" style="fill: rgb(244, 165, 130);"></rect><text x="112" y="109" dy=".35em" style="text-anchor: end;">S0069</text></g><g class="legend" transform="translate(0,40)" style="opacity: 1;"><rect x="120" y="100" width="18" height="18" style="fill: rgb(202, 0, 32);"></rect><text x="112" y="109" dy=".35em" style="text-anchor: end;">S0068</text></g></svg>